<svg xmlns="http://www.w3.org/2000/svg" version="1.1" xmlns:xlink="http://www.w3.org/1999/xlink" xmlns:svgjs="http://svgjs.dev/svgjs" width="1500" height="1500" viewBox="0 0 1500 1500"><rect width="1500" height="1500" fill="#000000"></rect><g transform="matrix(0.6666666666666666,0,0,0.6666666666666666,249.01989305341834,244.3741935483871)"><svg viewBox="0 0 246 248" data-background-color="#8b3c7f" preserveAspectRatio="xMidYMid meet" height="1512" width="1500" xmlns="http://www.w3.org/2000/svg" xmlns:xlink="http://www.w3.org/1999/xlink"><g id="tight-bounds" transform="matrix(1,0,0,1,0.2411063088590879,0.4000000000000057)"><svg viewBox="0 0 245.51778738228182 247.2" height="247.2" width="245.51778738228182"><g><svg viewBox="0 0 395.52 398.22998179665046" height="247.2" width="245.51778738228182"><g transform="matrix(1,0,0,1,0,266.7985549183722)"><svg viewBox="0 0 395.52 131.43142687827827" height="131.43142687827827" width="395.52"><g id="textblocktransform"><svg viewBox="0 0 395.52 131.43142687827827" height="131.43142687827827" width="395.52" id="textblock"><g><svg viewBox="0 0 395.52 92.13827074512287" height="92.13827074512287" width="395.52"><g transform="matrix(1,0,0,1,0,0)"><svg width="395.52" viewBox="-6.49 -38.67 176.2571428565 41.06" height="92.13827074512287" data-palette-color="#ffffff"><path d="M27-36.18L27-36.18Q27.54-36.13 27.88-35.72 28.22-35.3 28.17-34.67L28.17-34.67Q28.13-34.13 27.73-33.81 27.34-33.5 26.66-33.5L26.66-33.5 25.73-33.59Q24.76-33.69 23-33.84 21.24-33.98 18.77-34.08 16.31-34.18 13.28-34.18L13.28-34.18Q12.89-34.18 12.55-34.18 12.21-34.18 11.82-34.13L11.82-34.13Q12.01-32.52 12.23-30.4 12.45-28.27 12.6-26.12 12.74-23.97 12.84-22.05 12.94-20.12 12.94-18.9L12.94-18.9Q12.94-17.97 13.06-16.26 13.18-14.55 13.35-12.52 13.53-10.5 13.72-8.37 13.92-6.25 14.11-4.52 14.31-2.78 14.43-1.64 14.55-0.49 14.55-0.44L14.55-0.44Q14.55 0.1 14.18 0.46 13.82 0.83 13.18 0.93L13.18 0.93Q12.65 0.93 12.26 0.59 11.87 0.24 11.82-0.29L11.82-0.29Q11.82-0.44 11.67-1.61 11.52-2.78 11.35-4.52 11.18-6.25 10.99-8.35 10.79-10.45 10.62-12.48 10.45-14.5 10.33-16.21 10.21-17.92 10.21-18.9L10.21-18.9Q10.21-20.21 10.11-22.22 10.01-24.22 9.84-26.37 9.67-28.52 9.47-30.57 9.28-32.62 9.08-34.08L9.08-34.08Q6.45-33.98 3.91-33.86 1.37-33.74-0.61-33.59-2.59-33.45-3.83-33.35-5.08-33.25-5.13-33.25L-5.13-33.25Q-5.66-33.2-6.05-33.59-6.45-33.98-6.49-34.62L-6.49-34.62Q-6.49-35.16-6.15-35.55-5.81-35.94-5.27-35.99L-5.27-35.99Q-5.22-35.99-3.91-36.08-2.59-36.18-0.44-36.33 1.71-36.47 4.42-36.62 7.13-36.77 9.91-36.87L9.91-36.87Q10.01-36.87 10.11-36.89 10.21-36.91 10.5-36.87L10.5-36.87Q11.18-36.87 11.89-36.89 12.6-36.91 13.28-36.91L13.28-36.91Q16.41-36.91 18.9-36.82 21.39-36.72 23.17-36.57 24.95-36.43 25.93-36.3 26.9-36.18 27-36.18ZM35.64-1.71L35.64-1.71Q36.57-1.71 38.01-2.61 39.45-3.52 40.82-5.15 42.19-6.79 43.16-9.08 44.14-11.38 44.14-14.21L44.14-14.21Q44.14-16.94 43.48-19.02 42.82-21.09 41.97-22.53 41.11-23.97 40.26-24.71 39.4-25.44 39.01-25.54L39.01-25.54Q38.18-25.54 37.52-25.42 36.86-25.29 36.62-25.24L36.62-25.24Q36.03-25.24 35.54-25.73L35.54-25.73Q34.32-25.24 33.01-23.54 31.69-21.83 30.56-19.56 29.44-17.29 28.71-14.72 27.98-12.16 27.98-10.01L27.98-10.01Q27.98-7.76 28.76-6.18 29.54-4.59 30.71-3.61 31.88-2.64 33.2-2.17 34.52-1.71 35.64-1.71ZM39.06-28.27L39.06-28.27Q40.09-28.27 41.43-27.27 42.77-26.27 43.97-24.44 45.16-22.61 46.02-20.02 46.87-17.43 46.87-14.21L46.87-14.21Q46.87-10.94 45.75-8.15 44.63-5.37 42.94-3.32 41.26-1.27 39.28-0.12 37.3 1.03 35.64 1.03L35.64 1.03Q33.74 1.03 31.88 0.29 30.03-0.44 28.56-1.83 27.1-3.22 26.17-5.27 25.24-7.32 25.24-10.01L25.24-10.01Q25.24-11.72 25.68-13.77 26.12-15.82 26.88-17.9 27.63-19.97 28.68-21.9 29.73-23.83 30.95-25.34 32.18-26.86 33.54-27.76 34.91-28.66 36.33-28.66L36.33-28.66Q36.86-28.66 37.28-28.54 37.69-28.42 38.03-28.22L38.03-28.22Q38.28-28.22 38.52-28.25 38.77-28.27 39.06-28.27ZM68.16-5.76L68.16-5.76Q68.4-6.1 68.89-6.25L68.89-6.25Q68.6-8.15 68.33-10.33 68.06-12.5 67.84-14.62 67.62-16.75 67.48-18.68 67.33-20.61 67.33-22.02L67.33-22.02Q67.33-22.36 67.33-22.71 67.33-23.05 67.28-23.44L67.28-23.44Q66.5-23.68 66.35-24.56L66.35-24.56Q66.35-24.66 66.23-24.88 66.11-25.1 65.72-25.29L65.72-25.29Q65.33-25.49 64.79-25.49L64.79-25.49Q64.25-25.49 63.72-25.32 63.18-25.15 62.74-24.95L62.74-24.95Q61.37-24.32 59.96-23.1 58.54-21.88 57.29-20.36 56.05-18.85 55.1-17.16 54.15-15.48 53.71-13.92L53.71-13.92Q53.36-12.6 53.36-11.23L53.36-11.23Q53.36-9.52 53.93-8.06 54.49-6.59 55.34-5.42 56.2-4.25 57.22-3.44 58.25-2.64 59.17-2.2L59.17-2.2Q59.76-1.9 60.69-1.9L60.69-1.9Q62.3-1.9 64.37-2.81 66.45-3.71 68.16-5.76ZM70.06-22.02L70.06-22.02Q70.06-20.46 70.23-18.26 70.41-16.06 70.7-13.67 70.99-11.28 71.31-8.91 71.63-6.54 71.89-4.61 72.16-2.69 72.36-1.46 72.55-0.24 72.55-0.15L72.55-0.15Q72.55 0.34 72.21 0.73 71.87 1.12 71.19 1.22L71.19 1.22Q70.7 1.22 70.31 0.9 69.92 0.59 69.82 0.05L69.82 0.05Q69.82-0.05 69.7-0.88 69.58-1.71 69.38-3.08L69.38-3.08Q67.38-1.03 65.08-0.1 62.79 0.83 60.74 0.83L60.74 0.83Q59.08 0.83 58.05 0.29L58.05 0.29Q56.59-0.39 55.24-1.54 53.9-2.69 52.88-4.17 51.85-5.66 51.24-7.47 50.63-9.28 50.63-11.28L50.63-11.28Q50.63-12.89 51.07-14.65L51.07-14.65Q51.56-16.5 52.66-18.46 53.75-20.41 55.17-22.12 56.59-23.83 58.25-25.22 59.91-26.61 61.57-27.39L61.57-27.39Q63.33-28.22 64.79-28.22L64.79-28.22Q65.38-28.22 65.91-28.1 66.45-27.98 67.13-27.64L67.13-27.64Q67.04-29.44 66.91-31.15 66.79-32.86 66.67-34.2 66.55-35.55 66.47-36.38 66.4-37.21 66.4-37.3L66.4-37.3Q66.4-37.84 66.77-38.21 67.13-38.57 67.77-38.67L67.77-38.67Q68.31-38.67 68.67-38.31 69.04-37.94 69.14-37.4L69.14-37.4Q69.14-37.26 69.28-35.74 69.43-34.23 69.6-31.98 69.77-29.74 69.92-27.08 70.06-24.41 70.06-22.02ZM87.44-1.71L87.44-1.71Q88.37-1.71 89.81-2.61 91.25-3.52 92.62-5.15 93.99-6.79 94.96-9.08 95.94-11.38 95.94-14.21L95.94-14.21Q95.94-16.94 95.28-19.02 94.62-21.09 93.77-22.53 92.91-23.97 92.06-24.71 91.2-25.44 90.81-25.54L90.81-25.54Q89.98-25.54 89.32-25.42 88.66-25.29 88.42-25.24L88.42-25.24Q87.83-25.24 87.35-25.73L87.35-25.73Q86.13-25.24 84.81-23.54 83.49-21.83 82.37-19.56 81.24-17.29 80.51-14.72 79.78-12.16 79.78-10.01L79.78-10.01Q79.78-7.76 80.56-6.18 81.34-4.59 82.51-3.61 83.68-2.64 85-2.17 86.32-1.71 87.44-1.71ZM90.86-28.27L90.86-28.27Q91.89-28.27 93.23-27.27 94.57-26.27 95.77-24.44 96.97-22.61 97.82-20.02 98.67-17.43 98.67-14.21L98.67-14.21Q98.67-10.94 97.55-8.15 96.43-5.37 94.74-3.32 93.06-1.27 91.08-0.12 89.1 1.03 87.44 1.03L87.44 1.03Q85.54 1.03 83.68 0.29 81.83-0.44 80.36-1.83 78.9-3.22 77.97-5.27 77.04-7.32 77.04-10.01L77.04-10.01Q77.04-11.72 77.48-13.77 77.92-15.82 78.68-17.9 79.44-19.97 80.49-21.9 81.54-23.83 82.76-25.34 83.98-26.86 85.34-27.76 86.71-28.66 88.13-28.66L88.13-28.66Q88.66-28.66 89.08-28.54 89.49-28.42 89.84-28.22L89.84-28.22Q90.08-28.22 90.32-28.25 90.57-28.27 90.86-28.27ZM107.31-21.88L107.31-21.88Q107.31-20.31 107.51-18.12 107.7-15.92 107.97-13.53 108.24-11.13 108.56-8.76 108.88-6.4 109.17-4.47 109.46-2.54 109.66-1.32 109.85-0.1 109.85 0L109.85 0Q109.85 1.12 108.49 1.37L108.49 1.37Q107.95 1.37 107.58 1.05 107.22 0.73 107.12 0.2L107.12 0.2Q107.07 0.05 106.87-1.22 106.68-2.49 106.41-4.39 106.14-6.3 105.82-8.67 105.51-11.04 105.21-13.45 104.92-15.87 104.75-18.07 104.58-20.26 104.58-21.88L104.58-21.88Q104.58-24.22 104.43-26.86 104.29-29.49 104.14-31.76 103.99-34.03 103.85-35.55 103.7-37.06 103.7-37.16L103.7-37.16Q103.7-37.7 104.04-38.06 104.38-38.43 105.07-38.53L105.07-38.53Q105.61-38.53 105.97-38.16 106.34-37.79 106.44-37.26L106.44-37.26Q106.44-37.11 106.58-35.6 106.73-34.08 106.87-31.81 107.02-29.54 107.17-26.9 107.31-24.27 107.31-21.88ZM116.54-29.2L116.54-29.2Q115.71-29.2 115.15-29.76 114.59-30.32 114.59-31.15L114.59-31.15Q114.59-31.98 115.15-32.52 115.71-33.06 116.54-33.06L116.54-33.06Q117.32-33.06 117.88-32.52 118.44-31.98 118.44-31.15L118.44-31.15Q118.44-30.32 117.88-29.76 117.32-29.2 116.54-29.2ZM116.98-27.15L117.18-27.15Q117.71-27.15 118.08-26.83 118.44-26.51 118.54-26.03L118.54-26.03Q118.54-25.88 118.76-24.51 118.98-23.14 119.27-21.19 119.57-19.24 119.84-17.02 120.1-14.79 120.2-13.04L120.2-13.04Q120.3-11.33 120.54-9.03 120.79-6.74 121.08-4.66 121.37-2.59 121.59-1.1 121.81 0.39 121.81 0.49L121.81 0.49Q121.81 1.03 121.47 1.39 121.13 1.76 120.45 1.86L120.45 1.86Q119.91 1.86 119.54 1.54 119.18 1.22 119.08 0.68L119.08 0.68Q119.08 0.54 118.86-0.93 118.64-2.39 118.35-4.47 118.05-6.54 117.81-8.84 117.57-11.13 117.47-12.89L117.47-12.89Q117.37-14.6 117.1-16.8 116.83-18.99 116.56-20.95 116.3-22.9 116.08-24.29 115.86-25.68 115.86-25.78L115.86-25.78Q115.86-26.27 116.15-26.66 116.44-27.05 116.98-27.15L116.98-27.15ZM139.58-16.7L139.58-16.7Q148.23-12.5 148.23-7.86L148.23-7.86Q148.23-6.45 147.59-5.08 146.96-3.71 146.08-2.56 145.2-1.42 144.25-0.56 143.3 0.29 142.66 0.63L142.66 0.63Q142.07 0.98 141.12 1.29 140.17 1.61 139.17 1.86 138.17 2.1 137.27 2.25 136.36 2.39 135.78 2.39L135.78 2.39Q134.51 2.39 133.07 1.98 131.63 1.56 130.31 0.61 128.99-0.34 127.94-1.9 126.89-3.47 126.3-5.76L126.3-5.76Q126.3-6.84 127.67-7.13L127.67-7.13Q128.11-7.13 128.5-6.86 128.89-6.59 128.99-6.1L128.99-6.1Q129.53-4.05 130.53-2.91 131.53-1.76 132.58-1.17 133.63-0.59 134.53-0.46 135.43-0.34 135.78-0.34L135.78-0.34Q136.22-0.34 137-0.46 137.78-0.59 138.58-0.81 139.39-1.03 140.15-1.27 140.9-1.51 141.29-1.76L141.29-1.76Q141.73-2 142.47-2.66 143.2-3.32 143.86-4.17 144.52-5.03 145-6.01 145.49-6.98 145.49-7.86L145.49-7.86Q145.49-8.35 145.2-9.01 144.91-9.67 144.15-10.47 143.39-11.28 142-12.21 140.61-13.13 138.41-14.21L138.41-14.21Q137-14.89 135.46-15.63 133.92-16.36 132.6-16.97 131.28-17.58 130.4-18.02L130.4-18.02 129.53-18.41 128.74-18.75 128.74-19.63Q128.74-21.88 129.87-23.56 130.99-25.24 132.6-26.39 134.21-27.54 136-28.13 137.78-28.71 139.15-28.71L139.15-28.71Q140.56-28.71 141.54-28.37 142.51-28.03 143.15-27.61 143.78-27.2 144.1-26.83 144.42-26.46 144.47-26.37L144.47-26.37Q144.71-26.03 144.71-25.63L144.71-25.63Q144.71-24.9 144.08-24.51L144.08-24.51Q143.69-24.27 143.34-24.27L143.34-24.27Q142.61-24.27 142.22-24.9L142.22-24.9Q142.17-24.9 142-25.07 141.83-25.24 141.46-25.44 141.1-25.63 140.54-25.81 139.98-25.98 139.15-25.98L139.15-25.98Q138.32-25.98 137.14-25.63 135.97-25.29 134.8-24.58 133.63-23.88 132.7-22.85 131.77-21.83 131.53-20.46L131.53-20.46Q132.16-20.17 133.09-19.75 134.02-19.34 135.12-18.82 136.22-18.31 137.39-17.75 138.56-17.19 139.58-16.7ZM168.78-25.49L168.78-25.49Q169.22-25.39 169.51-24.95 169.81-24.51 169.76-23.83L169.76-23.83Q169.51-22.8 168.1-22.8L168.1-22.8Q168.1-22.85 166.29-23.14 164.48-23.44 161.46-23.49L161.46-23.49Q161.6-20.7 161.6-18.9L161.6-18.9Q161.6-17.97 161.73-16.26 161.85-14.55 162.02-12.52 162.19-10.5 162.38-8.37 162.58-6.25 162.78-4.52 162.97-2.78 163.09-1.64 163.21-0.49 163.21-0.44L163.21-0.44Q163.21 0.1 162.85 0.46 162.48 0.83 161.85 0.93L161.85 0.93Q161.31 0.93 160.92 0.59 160.53 0.24 160.48-0.29L160.48-0.29Q160.48-0.44 160.33-1.61 160.19-2.78 160.02-4.52 159.85-6.25 159.65-8.35 159.46-10.45 159.28-12.48 159.11-14.5 158.99-16.21 158.87-17.92 158.87-18.9L158.87-18.9Q158.87-20.75 158.72-23.39L158.72-23.39Q157.45-23.29 156.23-23.14 155.01-23 154.06-22.88 153.11-22.75 152.5-22.66 151.89-22.56 151.79-22.56L151.79-22.56Q151.3-22.56 150.91-22.9 150.52-23.24 150.42-23.93L150.42-23.93Q150.42-24.41 150.74-24.78 151.06-25.15 151.59-25.24L151.59-25.24Q151.64-25.24 152.25-25.37 152.86-25.49 153.82-25.61 154.77-25.73 155.99-25.85 157.21-25.98 158.53-26.07L158.53-26.07Q158.43-27.44 158.31-28.78 158.19-30.13 158.06-31.37 157.94-32.62 157.8-33.69 157.65-34.77 157.5-35.55L157.5-35.55Q157.5-36.04 157.84-36.43 158.19-36.82 158.87-36.91L158.87-36.91Q159.36-36.91 159.72-36.62 160.09-36.33 160.19-35.79L160.19-35.79Q160.53-34.28 160.82-31.64 161.12-29 161.36-26.22L161.36-26.22Q163.02-26.22 164.36-26.12 165.71-26.03 166.66-25.88 167.61-25.73 168.17-25.61 168.73-25.49 168.78-25.49Z" opacity="1" transform="matrix(1,0,0,1,0,0)" fill="#ffffff" class="wordmark-text-0" data-fill-palette-color="primary" id="text-0"></path></svg></g></svg></g><g transform="matrix(1,0,0,1,75.54432000000001,113.8899051495485)"><svg viewBox="0 0 244.43135999999996 17.541521728729766" height="17.541521728729766" width="244.43135999999996"><g transform="matrix(1,0,0,1,0,0)"><svg width="244.43135999999996" viewBox="0.59 -34.18 612.28 43.95" height="17.541521728729766" data-palette-color="#ffffff"><path d="M17.09-21.58L17.09-21.58Q18.26-21.58 19.18-20.84 20.09-20.09 20.8-18.16L20.8-18.16 23.39-11.28 23.78-11.28 26.51-20.85Q26.71-21.53 27.01-22.17 27.32-22.8 27.76-23.3 28.2-23.8 28.81-24.11 29.42-24.41 30.27-24.41L30.27-24.41Q31.15-24.41 31.76-24.1 32.37-23.78 32.76-23.27 33.15-22.75 33.33-22.09 33.5-21.44 33.5-20.75L33.5-20.75Q33.5-20.09 33.31-19.47 33.13-18.85 32.91-18.21L32.91-18.21 27.49-3.81Q26.93-2.37 26.48-1.6 26.03-0.83 25.59-0.48 25.15-0.12 24.71-0.06 24.27 0 23.78 0L23.78 0Q23.24 0 22.77-0.06 22.29-0.12 21.81-0.48 21.34-0.83 20.85-1.6 20.36-2.37 19.82-3.81L19.82-3.81 17.29-12.6 16.89-12.6 14.26-3.81Q13.72-2.37 13.27-1.6 12.82-0.83 12.39-0.48 11.96-0.12 11.52-0.06 11.08 0 10.6 0L10.6 0Q10.06 0 9.58-0.06 9.11-0.12 8.63-0.48 8.15-0.83 7.67-1.6 7.18-2.37 6.64-3.81L6.64-3.81 1.17-18.21Q0.95-18.8 0.77-19.47 0.59-20.14 0.59-20.8L0.59-20.8Q0.59-21.51 0.77-22.17 0.95-22.83 1.35-23.33 1.76-23.83 2.42-24.12 3.08-24.41 4.05-24.41L4.05-24.41Q4.74-24.41 5.29-24.11 5.83-23.8 6.27-23.3 6.71-22.8 7.03-22.17 7.35-21.53 7.57-20.85L7.57-20.85 10.64-11.28 11.04-11.28 13.28-18.16Q13.89-20.09 14.9-20.84 15.92-21.58 17.09-21.58ZM56.93-15.43L56.93-13.92Q56.93-13.53 56.88-13 56.83-12.48 56.5-12 56.17-11.52 55.47-11.18 54.76-10.84 53.46-10.84L53.46-10.84 43.75-10.84 43.75-8.5Q43.75-7.91 43.89-7.28 44.04-6.64 44.39-6.1 44.75-5.57 45.33-5.22 45.92-4.88 46.77-4.88L46.77-4.88Q47.75-4.88 48.28-5.11 48.8-5.35 49.11-5.69 49.41-6.03 49.66-6.42 49.9-6.81 50.3-7.15 50.71-7.5 51.43-7.73 52.15-7.96 53.42-7.96L53.42-7.96Q54.03-7.96 54.6-7.86 55.17-7.76 55.61-7.5 56.05-7.23 56.32-6.75 56.59-6.27 56.59-5.52L56.59-5.52Q56.59-3.93 55.59-2.87 54.59-1.81 53.07-1.17 51.56-0.54 49.79-0.27 48.02 0 46.48 0L46.48 0Q44.46-0.02 42.62-0.51 40.79-1 39.39-2.08 37.99-3.15 37.16-4.88 36.33-6.62 36.33-9.13L36.33-9.13 36.33-14.84Q36.33-17.16 36.87-18.77 37.42-20.39 38.3-21.46 39.18-22.53 40.28-23.13 41.38-23.73 42.5-24.02 43.63-24.32 44.64-24.39 45.65-24.46 46.38-24.46L46.38-24.46Q48.85-24.46 50.6-24.02 52.34-23.58 53.51-22.88 54.69-22.17 55.37-21.24 56.05-20.31 56.39-19.32 56.74-18.33 56.83-17.32 56.93-16.31 56.93-15.43L56.93-15.43ZM43.75-16.21L43.75-14.5 49.85-14.5Q49.85-15.65 49.79-16.54 49.73-17.43 49.42-18.04 49.12-18.65 48.47-18.97 47.82-19.29 46.63-19.29L46.63-19.29Q45.63-19.29 45.05-18.97 44.48-18.65 44.19-18.18 43.89-17.7 43.82-17.16 43.75-16.63 43.75-16.21L43.75-16.21ZM61.91-5.52L61.91-28.61Q61.91-29.66 62.02-30.68 62.13-31.69 62.51-32.46 62.89-33.23 63.62-33.7 64.35-34.18 65.57-34.18L65.57-34.18Q66.84-34.18 67.6-33.7 68.35-33.23 68.73-32.46 69.11-31.69 69.22-30.68 69.33-29.66 69.33-28.61L69.33-28.61 69.33-20.26Q69.55-21 69.95-21.73 70.36-22.46 70.99-23.05 71.63-23.63 72.52-24 73.41-24.37 74.6-24.37L74.6-24.37Q75.95-24.37 77.29-23.93 78.63-23.49 79.71-22.47 80.78-21.46 81.45-19.81 82.12-18.16 82.12-15.72L82.12-15.72 82.12-8.64Q82.12-6.23 81.45-4.58 80.78-2.93 79.71-1.9 78.63-0.88 77.29-0.44 75.95 0 74.6 0L74.6 0Q73.41 0 72.52-0.38 71.63-0.76 70.99-1.34 70.36-1.93 69.95-2.66 69.55-3.39 69.33-4.1L69.33-4.1Q69.33-3.61 69.25-2.91 69.16-2.2 68.79-1.55 68.43-0.9 67.67-0.45 66.91 0 65.57 0L65.57 0Q64.25 0 63.52-0.48 62.79-0.95 62.42-1.73 62.06-2.51 61.98-3.5 61.91-4.49 61.91-5.52L61.91-5.52ZM74.6-9.28L74.6-15.19Q74.6-15.82 74.56-16.44 74.51-17.07 74.29-17.55 74.07-18.04 73.64-18.35 73.21-18.65 72.46-18.65L72.46-18.65Q71.5-18.65 70.89-18.04 70.28-17.43 69.94-16.55 69.6-15.67 69.47-14.69 69.33-13.7 69.33-12.94L69.33-12.94Q69.36-11.06 69.49-9.7 69.62-8.35 69.97-7.46 70.31-6.57 70.91-6.14 71.5-5.71 72.46-5.71L72.46-5.71Q73.21-5.71 73.64-6.02 74.07-6.32 74.29-6.84 74.51-7.35 74.56-7.98 74.6-8.62 74.6-9.28L74.6-9.28ZM126.16-18.85L126.16-5.52Q126.16-4.49 126.09-3.5 126.02-2.51 125.65-1.73 125.28-0.95 124.55-0.48 123.82 0 122.5 0L122.5 0Q121.16 0 120.4-0.45 119.64-0.9 119.28-1.55 118.91-2.2 118.83-2.91 118.74-3.61 118.74-4.1L118.74-4.1Q118.52-3.39 118.12-2.66 117.71-1.93 117.08-1.34 116.45-0.76 115.55-0.38 114.66 0 113.47 0L113.47 0Q112.12 0 110.78-0.44 109.44-0.88 108.36-1.9 107.29-2.93 106.62-4.58 105.95-6.23 105.95-8.64L105.95-8.64 105.95-15.72Q105.95-18.16 106.62-19.81 107.29-21.46 108.36-22.47 109.44-23.49 110.78-23.93 112.12-24.37 113.47-24.37L113.47-24.37Q114.66-24.37 115.55-24 116.45-23.63 117.08-23.05 117.71-22.46 118.12-21.73 118.52-21 118.74-20.26L118.74-20.26Q118.74-21.48 119.08-22.29 119.42-23.1 119.96-23.57 120.5-24.05 121.17-24.23 121.84-24.41 122.5-24.41L122.5-24.41Q123.72-24.41 124.45-23.94 125.19-23.46 125.56-22.69 125.94-21.92 126.05-20.91 126.16-19.9 126.16-18.85L126.16-18.85ZM113.47-15.19L113.47-9.28Q113.47-8.62 113.52-7.98 113.56-7.35 113.78-6.84 114-6.32 114.43-6.02 114.86-5.71 115.62-5.71L115.62-5.71Q116.57-5.71 117.17-6.14 117.76-6.57 118.11-7.46 118.45-8.35 118.58-9.7 118.72-11.06 118.74-12.94L118.74-12.94Q118.74-13.7 118.61-14.69 118.47-15.67 118.13-16.55 117.79-17.43 117.18-18.04 116.57-18.65 115.62-18.65L115.62-18.65Q114.86-18.65 114.43-18.35 114-18.04 113.78-17.55 113.56-17.07 113.52-16.44 113.47-15.82 113.47-15.19L113.47-15.19ZM132.02 4.2L132.02-18.9Q132.02-19.92 132.09-20.91 132.17-21.9 132.53-22.68 132.9-23.46 133.63-23.94 134.36-24.41 135.68-24.41L135.68-24.41Q137.02-24.41 137.78-23.96 138.54-23.51 138.9-22.86 139.27-22.22 139.36-21.51 139.44-20.8 139.44-20.31L139.44-20.31Q139.66-21.02 140.06-21.75 140.47-22.49 141.1-23.07 141.74-23.66 142.63-24.04 143.52-24.41 144.71-24.41L144.71-24.41Q146.06-24.41 147.4-23.97 148.74-23.54 149.82-22.51 150.89-21.48 151.56-19.84 152.23-18.19 152.23-15.77L152.23-15.77 152.23-8.69Q152.23-6.25 151.56-4.6 150.89-2.95 149.82-1.94 148.74-0.93 147.4-0.49 146.06-0.05 144.71-0.05L144.71-0.05Q143.52-0.05 142.63-0.42 141.74-0.78 141.1-1.37 140.47-1.95 140.06-2.69 139.66-3.42 139.44-4.15L139.44-4.15 139.44 4.2Q139.44 5.27 139.33 6.27 139.22 7.28 138.84 8.04 138.46 8.81 137.71 9.29 136.95 9.77 135.68 9.77L135.68 9.77Q134.46 9.77 133.73 9.29 133 8.81 132.62 8.04 132.24 7.28 132.13 6.27 132.02 5.27 132.02 4.2L132.02 4.2ZM144.71-9.23L144.71-15.14Q144.71-15.8 144.67-16.43 144.62-17.07 144.4-17.58 144.18-18.09 143.75-18.4 143.32-18.7 142.57-18.7L142.57-18.7Q141.61-18.7 141.02-18.27 140.42-17.85 140.08-16.96 139.73-16.06 139.6-14.7 139.47-13.33 139.44-11.47L139.44-11.47Q139.44-10.69 139.57-9.7 139.71-8.72 140.05-7.84 140.39-6.96 141-6.36 141.61-5.76 142.57-5.76L142.57-5.76Q143.32-5.76 143.75-6.07 144.18-6.37 144.4-6.86 144.62-7.35 144.67-7.97 144.71-8.59 144.71-9.23L144.71-9.23ZM157.94 4.2L157.94-18.9Q157.94-19.92 158.02-20.91 158.09-21.9 158.46-22.68 158.82-23.46 159.56-23.94 160.29-24.41 161.61-24.41L161.61-24.41Q162.95-24.41 163.71-23.96 164.46-23.51 164.83-22.86 165.19-22.22 165.28-21.51 165.37-20.8 165.37-20.31L165.37-20.31Q165.59-21.02 165.99-21.75 166.39-22.49 167.03-23.07 167.66-23.66 168.55-24.04 169.44-24.41 170.64-24.41L170.64-24.41Q171.98-24.41 173.32-23.97 174.67-23.54 175.74-22.51 176.82-21.48 177.49-19.84 178.16-18.19 178.16-15.77L178.16-15.77 178.16-8.69Q178.16-6.25 177.49-4.6 176.82-2.95 175.74-1.94 174.67-0.93 173.32-0.49 171.98-0.05 170.64-0.05L170.64-0.05Q169.44-0.05 168.55-0.42 167.66-0.78 167.03-1.37 166.39-1.95 165.99-2.69 165.59-3.42 165.37-4.15L165.37-4.15 165.37 4.2Q165.37 5.27 165.26 6.27 165.15 7.28 164.77 8.04 164.39 8.81 163.63 9.29 162.88 9.77 161.61 9.77L161.61 9.77Q160.39 9.77 159.65 9.29 158.92 8.81 158.54 8.04 158.16 7.28 158.05 6.27 157.94 5.27 157.94 4.2L157.94 4.2ZM170.64-9.23L170.64-15.14Q170.64-15.8 170.59-16.43 170.54-17.07 170.32-17.58 170.1-18.09 169.67-18.4 169.25-18.7 168.49-18.7L168.49-18.7Q167.54-18.7 166.94-18.27 166.34-17.85 166-16.96 165.66-16.06 165.52-14.7 165.39-13.33 165.37-11.47L165.37-11.47Q165.37-10.69 165.5-9.7 165.63-8.72 165.98-7.84 166.32-6.96 166.93-6.36 167.54-5.76 168.49-5.76L168.49-5.76Q169.25-5.76 169.67-6.07 170.1-6.37 170.32-6.86 170.54-7.35 170.59-7.97 170.64-8.59 170.64-9.23L170.64-9.23ZM184.06-5.47L184.06-28.76Q184.06-29.79 184.17-30.76 184.28-31.74 184.67-32.5 185.07-33.25 185.8-33.72 186.53-34.18 187.78-34.18L187.78-34.18Q189.05-34.18 189.78-33.72 190.51-33.25 190.89-32.5 191.27-31.74 191.38-30.76 191.49-29.79 191.49-28.76L191.49-28.76 191.49-5.47Q191.49-4.44 191.38-3.45 191.27-2.47 190.89-1.7 190.51-0.93 189.78-0.46 189.05 0 187.78 0L187.78 0Q186.53 0 185.8-0.46 185.07-0.93 184.67-1.7 184.28-2.47 184.17-3.45 184.06-4.44 184.06-5.47L184.06-5.47ZM198.71-5.47L198.71-18.95Q198.71-19.97 198.82-20.95 198.93-21.92 199.32-22.69 199.71-23.46 200.44-23.94 201.18-24.41 202.42-24.41L202.42-24.41Q203.67-24.41 204.4-23.94 205.13-23.46 205.52-22.69 205.91-21.92 206.02-20.95 206.13-19.97 206.13-18.95L206.13-18.95 206.13-5.47Q206.13-4.44 206.02-3.45 205.91-2.47 205.52-1.7 205.13-0.93 204.4-0.46 203.67 0 202.42 0L202.42 0Q201.18 0 200.44-0.46 199.71-0.93 199.32-1.7 198.93-2.47 198.82-3.45 198.71-4.44 198.71-5.47L198.71-5.47ZM206.18-30.47L206.18-30.47Q206.18-28.59 205.2-27.67 204.23-26.76 202.47-26.76L202.47-26.76Q200.71-26.76 199.74-27.67 198.76-28.59 198.76-30.47L198.76-30.47Q198.76-32.42 199.74-33.3 200.71-34.18 202.47-34.18L202.47-34.18Q204.35-34.18 205.27-33.3 206.18-32.42 206.18-30.47ZM219.7-16.02L219.7-8.45Q219.7-8.06 219.78-7.46 219.85-6.86 220.12-6.29 220.39-5.71 220.91-5.3 221.44-4.88 222.34-4.88L222.34-4.88Q223.42-4.88 224.03-5.13 224.64-5.37 224.93-5.8 225.22-6.23 225.29-6.8 225.37-7.37 225.37-8.01L225.37-8.01Q225.37-8.33 225.48-8.73 225.59-9.13 226-9.48 226.42-9.84 227.24-10.07 228.05-10.3 229.47-10.3L229.47-10.3Q230.76-10.3 231.47-10.01 232.18-9.72 232.51-9.31 232.84-8.91 232.89-8.48 232.94-8.06 232.94-7.81L232.94-7.81Q232.94-6.25 232.46-5.07 231.98-3.88 231.18-3.02 230.37-2.15 229.32-1.56 228.27-0.98 227.09-0.63 225.91-0.29 224.68-0.15 223.46 0 222.34 0L222.34 0Q220.41 0 218.61-0.51 216.8-1.03 215.39-2.12 213.99-3.22 213.14-4.94 212.28-6.67 212.28-9.08L212.28-9.08 212.28-14.79Q212.28-17.11 212.83-18.73 213.38-20.34 214.26-21.41 215.14-22.49 216.24-23.08 217.34-23.68 218.46-23.97 219.58-24.27 220.6-24.34 221.61-24.41 222.34-24.41L222.34-24.41Q224.51-24.41 226.14-24.05 227.76-23.68 228.93-23.07 230.1-22.46 230.87-21.67 231.64-20.87 232.08-20 232.52-19.12 232.7-18.24 232.89-17.36 232.89-16.6L232.89-16.6Q232.89-16.21 232.84-15.69 232.79-15.16 232.46-14.69 232.13-14.21 231.42-13.87 230.71-13.53 229.42-13.53L229.42-13.53Q228.96-13.53 228.26-13.56 227.57-13.6 226.91-13.82 226.25-14.04 225.78-14.5 225.32-14.97 225.32-15.82L225.32-15.82Q225.32-16.41 225.26-16.96 225.2-17.5 224.9-17.92 224.61-18.33 224.01-18.59 223.42-18.85 222.34-18.85L222.34-18.85Q221.44-18.85 220.91-18.55 220.39-18.26 220.12-17.82 219.85-17.38 219.78-16.89 219.7-16.41 219.7-16.02L219.7-16.02ZM256.91-18.85L256.91-5.52Q256.91-4.49 256.84-3.5 256.76-2.51 256.4-1.73 256.03-0.95 255.3-0.48 254.56 0 253.25 0L253.25 0Q251.9 0 251.15-0.45 250.39-0.9 250.02-1.55 249.66-2.2 249.57-2.91 249.49-3.61 249.49-4.1L249.49-4.1Q249.27-3.39 248.86-2.66 248.46-1.93 247.83-1.34 247.19-0.76 246.3-0.38 245.41 0 244.21 0L244.21 0Q242.87 0 241.53-0.44 240.18-0.88 239.11-1.9 238.04-2.93 237.37-4.58 236.69-6.23 236.69-8.64L236.69-8.64 236.69-15.72Q236.69-18.16 237.37-19.81 238.04-21.46 239.11-22.47 240.18-23.49 241.53-23.93 242.87-24.37 244.21-24.37L244.21-24.37Q245.41-24.37 246.3-24 247.19-23.63 247.83-23.05 248.46-22.46 248.86-21.73 249.27-21 249.49-20.26L249.49-20.26Q249.49-21.48 249.83-22.29 250.17-23.1 250.71-23.57 251.24-24.05 251.92-24.23 252.59-24.41 253.25-24.41L253.25-24.41Q254.47-24.41 255.2-23.94 255.93-23.46 256.31-22.69 256.69-21.92 256.8-20.91 256.91-19.9 256.91-18.85L256.91-18.85ZM244.21-15.19L244.21-9.28Q244.21-8.62 244.26-7.98 244.31-7.35 244.53-6.84 244.75-6.32 245.18-6.02 245.6-5.71 246.36-5.71L246.36-5.71Q247.31-5.71 247.91-6.14 248.51-6.57 248.85-7.46 249.19-8.35 249.33-9.7 249.46-11.06 249.49-12.94L249.49-12.94Q249.49-13.7 249.35-14.69 249.22-15.67 248.88-16.55 248.53-17.43 247.92-18.04 247.31-18.65 246.36-18.65L246.36-18.65Q245.6-18.65 245.18-18.35 244.75-18.04 244.53-17.55 244.31-17.07 244.26-16.44 244.21-15.82 244.21-15.19L244.21-15.19ZM264.47-24.41L265.84-24.41 265.84-28.71Q265.84-29.74 265.95-30.71 266.06-31.69 266.45-32.46 266.84-33.23 267.58-33.7 268.31-34.18 269.55-34.18L269.55-34.18Q270.77-34.18 271.51-33.7 272.24-33.23 272.62-32.46 272.99-31.69 273.1-30.71 273.21-29.74 273.21-28.71L273.21-28.71 273.21-24.41 275.22-24.41Q275.85-24.41 276.49-24.35 277.12-24.29 277.62-24 278.12-23.71 278.43-23.12 278.73-22.53 278.73-21.48L278.73-21.48Q278.73-20.48 278.43-19.9 278.12-19.31 277.62-19.02 277.12-18.73 276.49-18.64 275.85-18.55 275.22-18.55L275.22-18.55 273.21-18.55 273.21-10.01Q273.21-9.52 273.25-8.97 273.29-8.42 273.51-7.96 273.73-7.5 274.17-7.19 274.61-6.88 275.41-6.88L275.41-6.88Q276.29-6.88 276.91-6.75 277.54-6.62 277.94-6.27 278.34-5.93 278.54-5.32 278.73-4.71 278.73-3.76L278.73-3.76Q278.73-2.78 278.28-2.08 277.83-1.37 277.07-0.9 276.32-0.44 275.31-0.22 274.31 0 273.21 0L273.21 0Q271.48 0 270.25-0.37 269.02-0.73 268.2-1.4 267.38-2.08 266.9-3.02 266.43-3.96 266.2-5.13 265.96-6.3 265.9-7.65 265.84-9.01 265.84-10.5L265.84-10.5 265.84-18.55 264.47-18.55Q263.84-18.55 263.22-18.64 262.59-18.73 262.11-19.02 261.62-19.31 261.31-19.9 261.01-20.48 261.01-21.48L261.01-21.48Q261.01-22.53 261.31-23.12 261.62-23.71 262.11-24 262.59-24.29 263.22-24.35 263.84-24.41 264.47-24.41L264.47-24.41ZM284.54-5.47L284.54-18.95Q284.54-19.97 284.65-20.95 284.76-21.92 285.15-22.69 285.54-23.46 286.27-23.94 287.01-24.41 288.25-24.41L288.25-24.41Q289.5-24.41 290.23-23.94 290.96-23.46 291.35-22.69 291.74-21.92 291.85-20.95 291.96-19.97 291.96-18.95L291.96-18.95 291.96-5.47Q291.96-4.44 291.85-3.45 291.74-2.47 291.35-1.7 290.96-0.93 290.23-0.46 289.5 0 288.25 0L288.25 0Q287.01 0 286.27-0.46 285.54-0.93 285.15-1.7 284.76-2.47 284.65-3.45 284.54-4.44 284.54-5.47L284.54-5.47ZM292.01-30.47L292.01-30.47Q292.01-28.59 291.03-27.67 290.06-26.76 288.3-26.76L288.3-26.76Q286.54-26.76 285.57-27.67 284.59-28.59 284.59-30.47L284.59-30.47Q284.59-32.42 285.57-33.3 286.54-34.18 288.3-34.18L288.3-34.18Q290.18-34.18 291.1-33.3 292.01-32.42 292.01-30.47ZM297.97-9.18L297.97-15.23Q297.97-17.48 298.58-19.04 299.19-20.61 300.15-21.66 301.11-22.71 302.3-23.29 303.48-23.88 304.63-24.17 305.78-24.46 306.77-24.54 307.76-24.61 308.32-24.61L308.32-24.61Q308.88-24.61 309.86-24.54 310.83-24.46 311.94-24.17 313.05-23.88 314.19-23.29 315.32-22.71 316.24-21.66 317.16-20.61 317.74-19.04 318.33-17.48 318.33-15.23L318.33-15.23 318.33-9.18Q318.33-6.93 317.74-5.37 317.16-3.81 316.24-2.76 315.32-1.71 314.19-1.12 313.05-0.54 311.94-0.24 310.83 0.05 309.86 0.12 308.88 0.2 308.32 0.2L308.32 0.2Q307.76 0.2 306.77 0.12 305.78 0.05 304.63-0.24 303.48-0.54 302.3-1.12 301.11-1.71 300.15-2.76 299.19-3.81 298.58-5.37 297.97-6.93 297.97-9.18L297.97-9.18ZM305.49-16.31L305.49-7.47Q305.51-6.76 305.83-6.23L305.83-6.23Q306.1-5.74 306.67-5.36 307.24-4.98 308.32-4.98L308.32-4.98Q309.34-4.98 309.89-5.36 310.44-5.74 310.71-6.23L310.71-6.23Q311-6.76 311.05-7.47L311.05-7.47 311.05-16.31Q311-17.04 310.71-17.65L310.71-17.65Q310.44-18.14 309.89-18.57 309.34-18.99 308.32-18.99L308.32-18.99Q307.24-18.99 306.67-18.57 306.1-18.14 305.83-17.65L305.83-17.65Q305.51-17.04 305.49-16.31L305.49-16.31ZM343.81-15.72L343.81-5.57Q343.81-4.52 343.69-3.52 343.57-2.51 343.17-1.73 342.76-0.95 342.02-0.48 341.27 0 340 0L340 0Q338.76 0 338.03-0.48 337.29-0.95 336.9-1.73 336.51-2.51 336.4-3.52 336.29-4.52 336.29-5.57L336.29-5.57 336.29-15.09Q336.29-15.77 336.23-16.43 336.17-17.09 335.95-17.59 335.73-18.09 335.3-18.4 334.88-18.7 334.14-18.7L334.14-18.7Q333.14-18.7 332.53-18.04 331.92-17.38 331.57-16.24 331.22-15.09 331.09-13.54 330.97-11.99 330.97-10.21L330.97-10.21 330.97-5.57Q330.97-4.52 330.85-3.52 330.73-2.51 330.32-1.73 329.92-0.95 329.18-0.48 328.43 0 327.16 0L327.16 0Q325.92 0 325.18-0.48 324.45-0.95 324.06-1.73 323.67-2.51 323.56-3.52 323.45-4.52 323.45-5.57L323.45-5.57 323.45-18.9Q323.45-19.95 323.52-20.94 323.6-21.92 323.96-22.69 324.33-23.46 325.07-23.94 325.82-24.41 327.16-24.41L327.16-24.41Q328.51-24.41 329.26-23.96 330.02-23.51 330.4-22.88 330.78-22.24 330.87-21.53 330.97-20.83 330.97-20.31L330.97-20.31Q331.17-21.02 331.58-21.75 332-22.49 332.64-23.07 333.29-23.66 334.19-24.04 335.1-24.41 336.29-24.41L336.29-24.41Q337.64-24.41 338.98-23.97 340.32-23.54 341.4-22.51 342.47-21.48 343.14-19.82 343.81-18.16 343.81-15.72L343.81-15.72ZM378.43-24.41L379.89-24.41Q380.5-24.41 381.14-24.34 381.77-24.27 382.27-23.97 382.77-23.68 383.09-23.07 383.41-22.46 383.41-21.39L383.41-21.39Q383.41-20.39 383.09-19.81 382.77-19.24 382.27-18.93 381.77-18.63 381.14-18.54 380.5-18.46 379.89-18.46L379.89-18.46 378.43-18.46 378.43-5.52Q378.43-4.44 378.32-3.45 378.21-2.47 377.8-1.7 377.4-0.93 376.63-0.46 375.86 0 374.57 0L374.57 0Q373.32 0 372.6-0.46 371.88-0.93 371.52-1.7 371.15-2.47 371.05-3.45 370.96-4.44 370.96-5.52L370.96-5.52 370.96-18.46 369.59-18.46Q368.91-18.46 368.28-18.54 367.66-18.63 367.18-18.93 366.71-19.24 366.42-19.81 366.12-20.39 366.12-21.39L366.12-21.39Q366.12-22.46 366.42-23.07 366.71-23.68 367.18-23.97 367.66-24.27 368.28-24.34 368.91-24.41 369.59-24.41L369.59-24.41 370.96-24.41Q370.96-26.56 371.15-28.37 371.35-30.18 372.1-31.46 372.86-32.74 374.35-33.46 375.84-34.18 378.43-34.18L378.43-34.18Q379.53-34.18 380.5-33.98 381.48-33.79 382.21-33.37 382.94-32.96 383.37-32.29 383.8-31.62 383.8-30.66L383.8-30.66Q383.8-29.79 383.49-29.2 383.19-28.61 382.75-28.25 382.31-27.88 381.78-27.73 381.26-27.59 380.82-27.59L380.82-27.59Q380.45-27.59 380.14-27.76 379.82-27.93 379.4-27.93L379.4-27.93Q379.06-27.93 378.88-27.71 378.7-27.49 378.59-27.12 378.48-26.76 378.45-26.32 378.43-25.88 378.43-25.44L378.43-25.44 378.43-24.41ZM386.33-9.18L386.33-15.23Q386.33-17.48 386.94-19.04 387.56-20.61 388.52-21.66 389.48-22.71 390.67-23.29 391.85-23.88 393-24.17 394.15-24.46 395.14-24.54 396.12-24.61 396.69-24.61L396.69-24.61Q397.25-24.61 398.22-24.54 399.2-24.46 400.31-24.17 401.42-23.88 402.56-23.29 403.69-22.71 404.61-21.66 405.52-20.61 406.11-19.04 406.7-17.48 406.7-15.23L406.7-15.23 406.7-9.18Q406.7-6.93 406.11-5.37 405.52-3.81 404.61-2.76 403.69-1.71 402.56-1.12 401.42-0.54 400.31-0.24 399.2 0.05 398.22 0.12 397.25 0.2 396.69 0.2L396.69 0.2Q396.12 0.2 395.14 0.12 394.15 0.05 393-0.24 391.85-0.54 390.67-1.12 389.48-1.71 388.52-2.76 387.56-3.81 386.94-5.37 386.33-6.93 386.33-9.18L386.33-9.18ZM393.85-16.31L393.85-7.47Q393.88-6.76 394.2-6.23L394.2-6.23Q394.46-5.74 395.04-5.36 395.61-4.98 396.69-4.98L396.69-4.98Q397.71-4.98 398.26-5.36 398.81-5.74 399.08-6.23L399.08-6.23Q399.37-6.76 399.42-7.47L399.42-7.47 399.42-16.31Q399.37-17.04 399.08-17.65L399.08-17.65Q398.81-18.14 398.26-18.57 397.71-18.99 396.69-18.99L396.69-18.99Q395.61-18.99 395.04-18.57 394.46-18.14 394.2-17.65L394.2-17.65Q393.88-17.04 393.85-16.31L393.85-16.31ZM427.4-20.75L427.4-20.75Q427.4-18.85 426.46-17.97 425.52-17.09 423.78-17.09L423.78-17.09Q423.54-17.09 423.09-17.05 422.64-17.02 422.12-16.86 421.61-16.7 421.09-16.39 420.56-16.09 420.12-15.56 419.68-15.04 419.41-14.23 419.14-13.43 419.14-12.3L419.14-12.3 419.14-5.32Q419.14-4.32 419.03-3.37 418.92-2.42 418.53-1.67 418.14-0.93 417.41-0.46 416.68 0 415.43 0L415.43 0Q414.21 0 413.5-0.46 412.8-0.93 412.42-1.67 412.04-2.42 411.93-3.37 411.82-4.32 411.82-5.32L411.82-5.32 411.82-18.99Q411.82-20.02 411.93-20.98 412.04-21.95 412.42-22.71 412.8-23.46 413.5-23.91 414.21-24.37 415.43-24.37L415.43-24.37Q416.68-24.37 417.35-23.82 418.02-23.27 418.34-22.4 418.66-21.53 418.71-20.47 418.75-19.41 418.75-18.41L418.75-18.41 419.14-18.41Q419.49-19.78 420.05-20.89 420.61-22 421.29-22.77 421.98-23.54 422.76-23.95 423.54-24.37 424.32-24.37L424.32-24.37Q425.27-24.37 425.87-24.16 426.47-23.95 426.81-23.51 427.15-23.07 427.27-22.39 427.4-21.7 427.4-20.75ZM452.34-24.41L453.71-24.41 453.71-28.71Q453.71-29.74 453.82-30.71 453.93-31.69 454.32-32.46 454.71-33.23 455.44-33.7 456.18-34.18 457.42-34.18L457.42-34.18Q458.64-34.18 459.37-33.7 460.11-33.23 460.48-32.46 460.86-31.69 460.97-30.71 461.08-29.74 461.08-28.71L461.08-28.71 461.08-24.41 463.08-24.41Q463.72-24.41 464.35-24.35 464.99-24.29 465.49-24 465.99-23.71 466.3-23.12 466.6-22.53 466.6-21.48L466.6-21.48Q466.6-20.48 466.3-19.9 465.99-19.31 465.49-19.02 464.99-18.73 464.35-18.64 463.72-18.55 463.08-18.55L463.08-18.55 461.08-18.55 461.08-10.01Q461.08-9.52 461.12-8.97 461.16-8.42 461.38-7.96 461.6-7.5 462.03-7.19 462.47-6.88 463.28-6.88L463.28-6.88Q464.16-6.88 464.78-6.75 465.4-6.62 465.81-6.27 466.21-5.93 466.41-5.32 466.6-4.71 466.6-3.76L466.6-3.76Q466.6-2.78 466.15-2.08 465.7-1.37 464.94-0.9 464.18-0.44 463.18-0.22 462.18 0 461.08 0L461.08 0Q459.35 0 458.12-0.37 456.88-0.73 456.07-1.4 455.25-2.08 454.77-3.02 454.3-3.96 454.06-5.13 453.83-6.3 453.77-7.65 453.71-9.01 453.71-10.5L453.71-10.5 453.71-18.55 452.34-18.55Q451.71-18.55 451.09-18.64 450.46-18.73 449.97-19.02 449.49-19.31 449.18-19.9 448.88-20.48 448.88-21.48L448.88-21.48Q448.88-22.53 449.18-23.12 449.49-23.71 449.97-24 450.46-24.29 451.09-24.35 451.71-24.41 452.34-24.41L452.34-24.41ZM470.55-9.18L470.55-15.23Q470.55-17.48 471.16-19.04 471.77-20.61 472.74-21.66 473.7-22.71 474.89-23.29 476.07-23.88 477.22-24.17 478.37-24.46 479.35-24.54 480.34-24.61 480.9-24.61L480.9-24.61Q481.47-24.61 482.44-24.54 483.42-24.46 484.53-24.17 485.64-23.88 486.78-23.29 487.91-22.71 488.83-21.66 489.74-20.61 490.33-19.04 490.91-17.48 490.91-15.23L490.91-15.23 490.91-9.18Q490.91-6.93 490.33-5.37 489.74-3.81 488.83-2.76 487.91-1.71 486.78-1.12 485.64-0.54 484.53-0.24 483.42 0.05 482.44 0.12 481.47 0.2 480.9 0.2L480.9 0.2Q480.34 0.2 479.35 0.12 478.37 0.05 477.22-0.24 476.07-0.54 474.89-1.12 473.7-1.71 472.74-2.76 471.77-3.81 471.16-5.37 470.55-6.93 470.55-9.18L470.55-9.18ZM478.07-16.31L478.07-7.47Q478.1-6.76 478.41-6.23L478.41-6.23Q478.68-5.74 479.26-5.36 479.83-4.98 480.9-4.98L480.9-4.98Q481.93-4.98 482.48-5.36 483.03-5.74 483.3-6.23L483.3-6.23Q483.59-6.76 483.64-7.47L483.64-7.47 483.64-16.31Q483.59-17.04 483.3-17.65L483.3-17.65Q483.03-18.14 482.48-18.57 481.93-18.99 480.9-18.99L480.9-18.99Q479.83-18.99 479.26-18.57 478.68-18.14 478.41-17.65L478.41-17.65Q478.1-17.04 478.07-16.31L478.07-16.31ZM515.03-28.61L515.03-5.52Q515.03-4.49 514.96-3.5 514.89-2.51 514.52-1.73 514.15-0.95 513.42-0.48 512.69 0 511.37 0L511.37 0Q510.03 0 509.27-0.45 508.51-0.9 508.15-1.55 507.78-2.2 507.7-2.91 507.61-3.61 507.61-4.1L507.61-4.1Q507.39-3.39 506.99-2.66 506.59-1.93 505.95-1.34 505.32-0.76 504.42-0.38 503.53 0 502.34 0L502.34 0Q500.99 0 499.65-0.44 498.31-0.88 497.24-1.9 496.16-2.93 495.49-4.58 494.82-6.23 494.82-8.64L494.82-8.64 494.82-15.72Q494.82-18.16 495.49-19.81 496.16-21.46 497.24-22.47 498.31-23.49 499.65-23.93 500.99-24.37 502.34-24.37L502.34-24.37Q503.53-24.37 504.42-24 505.32-23.63 505.95-23.05 506.59-22.46 506.99-21.73 507.39-21 507.61-20.26L507.61-20.26 507.61-28.61Q507.61-29.66 507.72-30.68 507.83-31.69 508.21-32.46 508.59-33.23 509.33-33.7 510.08-34.18 511.37-34.18L511.37-34.18Q512.59-34.18 513.32-33.7 514.06-33.23 514.43-32.46 514.81-31.69 514.92-30.68 515.03-29.66 515.03-28.61L515.03-28.61ZM502.34-15.19L502.34-9.28Q502.34-8.62 502.39-7.98 502.44-7.35 502.65-6.84 502.87-6.32 503.3-6.02 503.73-5.71 504.49-5.71L504.49-5.71Q505.44-5.71 506.04-6.14 506.63-6.57 506.98-7.46 507.32-8.35 507.45-9.7 507.59-11.06 507.61-12.94L507.61-12.94Q507.61-13.7 507.48-14.69 507.34-15.67 507-16.55 506.66-17.43 506.05-18.04 505.44-18.65 504.49-18.65L504.49-18.65Q503.73-18.65 503.3-18.35 502.87-18.04 502.65-17.55 502.44-17.07 502.39-16.44 502.34-15.82 502.34-15.19L502.34-15.19ZM519.62-9.18L519.62-15.23Q519.62-17.48 520.23-19.04 520.84-20.61 521.81-21.66 522.77-22.71 523.95-23.29 525.14-23.88 526.29-24.17 527.43-24.46 528.42-24.54 529.41-24.61 529.97-24.61L529.97-24.61Q530.53-24.61 531.51-24.54 532.49-24.46 533.6-24.17 534.71-23.88 535.84-23.29 536.98-22.71 537.89-21.66 538.81-20.61 539.4-19.04 539.98-17.48 539.98-15.23L539.98-15.23 539.98-9.18Q539.98-6.93 539.4-5.37 538.81-3.81 537.89-2.76 536.98-1.71 535.84-1.12 534.71-0.54 533.6-0.24 532.49 0.05 531.51 0.12 530.53 0.2 529.97 0.2L529.97 0.2Q529.41 0.2 528.42 0.12 527.43 0.05 526.29-0.24 525.14-0.54 523.95-1.12 522.77-1.71 521.81-2.76 520.84-3.81 520.23-5.37 519.62-6.93 519.62-9.18L519.62-9.18ZM527.14-16.31L527.14-7.47Q527.16-6.76 527.48-6.23L527.48-6.23Q527.75-5.74 528.32-5.36 528.9-4.98 529.97-4.98L529.97-4.98Q531-4.98 531.55-5.36 532.1-5.74 532.36-6.23L532.36-6.23Q532.66-6.76 532.71-7.47L532.71-7.47 532.71-16.31Q532.66-17.04 532.36-17.65L532.36-17.65Q532.1-18.14 531.55-18.57 531-18.99 529.97-18.99L529.97-18.99Q528.9-18.99 528.32-18.57 527.75-18.14 527.48-17.65L527.48-17.65Q527.16-17.04 527.14-16.31L527.14-16.31ZM545.3-5.47L545.3-28.76Q545.3-29.79 545.41-30.76 545.52-31.74 545.91-32.5 546.3-33.25 547.03-33.72 547.77-34.18 549.01-34.18L549.01-34.18Q550.28-34.18 551.01-33.72 551.75-33.25 552.13-32.5 552.5-31.74 552.61-30.76 552.72-29.79 552.72-28.76L552.72-28.76 552.72-5.47Q552.72-4.44 552.61-3.45 552.5-2.47 552.13-1.7 551.75-0.93 551.01-0.46 550.28 0 549.01 0L549.01 0Q547.77 0 547.03-0.46 546.3-0.93 545.91-1.7 545.52-2.47 545.41-3.45 545.3-4.44 545.3-5.47L545.3-5.47ZM559.95-5.47L559.95-18.95Q559.95-19.97 560.06-20.95 560.17-21.92 560.56-22.69 560.95-23.46 561.68-23.94 562.41-24.41 563.66-24.41L563.66-24.41Q564.9-24.41 565.64-23.94 566.37-23.46 566.76-22.69 567.15-21.92 567.26-20.95 567.37-19.97 567.37-18.95L567.37-18.95 567.37-5.47Q567.37-4.44 567.26-3.45 567.15-2.47 566.76-1.7 566.37-0.93 565.64-0.46 564.9 0 563.66 0L563.66 0Q562.41 0 561.68-0.46 560.95-0.93 560.56-1.7 560.17-2.47 560.06-3.45 559.95-4.44 559.95-5.47L559.95-5.47ZM567.42-30.47L567.42-30.47Q567.42-28.59 566.44-27.67 565.46-26.76 563.71-26.76L563.71-26.76Q561.95-26.76 560.97-27.67 560-28.59 560-30.47L560-30.47Q560-32.42 560.97-33.3 561.95-34.18 563.71-34.18L563.71-34.18Q565.59-34.18 566.5-33.3 567.42-32.42 567.42-30.47ZM580.89-18.02L580.89-18.02Q580.89-17.53 581.21-17.11 581.53-16.7 582.08-16.32 582.63-15.94 583.35-15.58 584.07-15.21 584.85-14.84L584.85-14.84Q586.04-14.26 587.29-13.59 588.53-12.92 589.56-12.01 590.58-11.11 591.23-9.92 591.88-8.74 591.88-7.13L591.88-7.13Q591.88-5.66 591.45-4.54 591.02-3.42 590.32-2.6 589.61-1.78 588.67-1.25 587.73-0.71 586.69-0.39 585.65-0.07 584.58 0.06 583.5 0.2 582.55 0.2L582.55 0.2Q580.67 0.2 579.28-0.12 577.89-0.44 576.89-0.96 575.89-1.49 575.24-2.16 574.59-2.83 574.23-3.56 573.86-4.3 573.71-5.02 573.57-5.74 573.57-6.35L573.57-6.35Q573.57-7.81 574.39-8.5 575.2-9.18 576.89-9.18L576.89-9.18Q578.11-9.18 578.89-8.52 579.67-7.86 579.72-6.4L579.72-6.4Q579.74-5.91 580-5.62 580.26-5.32 580.66-5.14 581.06-4.96 581.55-4.9 582.04-4.83 582.5-4.83L582.5-4.83Q583.46-4.83 584.05-5.33 584.65-5.83 584.65-6.64L584.65-6.64Q584.65-7.32 584.25-7.92 583.85-8.52 583.19-9.03 582.53-9.55 581.69-10.02 580.84-10.5 579.96-10.99L579.96-10.99Q578.87-11.57 577.75-12.23 576.64-12.89 575.74-13.7 574.84-14.5 574.28-15.52 573.71-16.53 573.71-17.82L573.71-17.82Q573.71-19.73 574.34-21.01 574.96-22.29 576.16-23.08 577.35-23.88 579.07-24.22 580.79-24.56 582.99-24.61L582.99-24.61 583.38-24.61Q585.36-24.61 586.74-24.27 588.12-23.93 589.03-23.38 589.95-22.83 590.47-22.14 591-21.46 591.26-20.76 591.51-20.07 591.57-19.43 591.63-18.8 591.63-18.36L591.63-18.36Q591.63-17.63 591.33-17.15 591.02-16.67 590.52-16.39 590.02-16.11 589.39-16 588.75-15.89 588.07-15.87L588.07-15.87Q587.48-15.87 587.01-16.06 586.53-16.26 586.19-16.55 585.85-16.85 585.66-17.21 585.48-17.58 585.48-17.92L585.48-17.92Q585.43-18.85 584.74-19.34 584.04-19.82 583.04-19.82L583.04-19.82Q582.63-19.82 582.25-19.74 581.87-19.65 581.56-19.45 581.26-19.24 581.08-18.9 580.89-18.55 580.89-18.02ZM598.61-24.41L599.98-24.41 599.98-28.71Q599.98-29.74 600.09-30.71 600.2-31.69 600.59-32.46 600.98-33.23 601.71-33.7 602.45-34.18 603.69-34.18L603.69-34.18Q604.91-34.18 605.65-33.7 606.38-33.23 606.76-32.46 607.13-31.69 607.24-30.71 607.35-29.74 607.35-28.71L607.35-28.71 607.35-24.41 609.36-24.41Q609.99-24.41 610.63-24.35 611.26-24.29 611.76-24 612.26-23.71 612.57-23.12 612.87-22.53 612.87-21.48L612.87-21.48Q612.87-20.48 612.57-19.9 612.26-19.31 611.76-19.02 611.26-18.73 610.63-18.64 609.99-18.55 609.36-18.55L609.36-18.55 607.35-18.55 607.35-10.01Q607.35-9.52 607.39-8.97 607.43-8.42 607.65-7.96 607.87-7.5 608.31-7.19 608.75-6.88 609.55-6.88L609.55-6.88Q610.43-6.88 611.05-6.75 611.68-6.62 612.08-6.27 612.48-5.93 612.68-5.32 612.87-4.71 612.87-3.76L612.87-3.76Q612.87-2.78 612.42-2.08 611.97-1.37 611.21-0.9 610.45-0.44 609.45-0.22 608.45 0 607.35 0L607.35 0Q605.62 0 604.39-0.37 603.16-0.73 602.34-1.4 601.52-2.08 601.04-3.02 600.57-3.96 600.34-5.13 600.1-6.3 600.04-7.65 599.98-9.01 599.98-10.5L599.98-10.5 599.98-18.55 598.61-18.55Q597.98-18.55 597.36-18.64 596.73-18.73 596.25-19.02 595.76-19.31 595.45-19.9 595.15-20.48 595.15-21.48L595.15-21.48Q595.15-22.53 595.45-23.12 595.76-23.71 596.25-24 596.73-24.29 597.36-24.35 597.98-24.41 598.61-24.41L598.61-24.41Z" opacity="1" transform="matrix(1,0,0,1,0,0)" fill="#ffffff" class="slogan-text-1" data-fill-palette-color="secondary" id="text-1"></path></svg></g></svg></g></svg></g></svg></g><g transform="matrix(1,0,0,1,86.11235694523951,0)"><svg viewBox="0 0 223.29528610952096 223.29528610952096" height="223.29528610952096" width="223.29528610952096"><g><svg></svg></g><g id="icon-0"><svg viewBox="0 0 223.29528610952096 223.29528610952096" height="223.29528610952096" width="223.29528610952096"><g><path d="M0 111.648c0-61.661 49.986-111.648 111.648-111.648 61.661 0 111.648 49.986 111.647 111.648 0 61.661-49.986 111.648-111.647 111.647-61.661 0-111.648-49.986-111.648-111.647zM111.648 214.986c57.072 0 103.339-46.266 103.338-103.338 0-57.072-46.266-103.339-103.338-103.339-57.072 0-103.339 46.266-103.339 103.339 0 57.072 46.266 103.339 103.339 103.338z" data-fill-palette-color="accent" fill="#ffffff" stroke="transparent"></path><ellipse rx="110.53116662421287" ry="110.53116662421287" cx="111.64764305476048" cy="111.64764305476048" fill="#ffffff" stroke="transparent" stroke-width="0" fill-opacity="1" data-fill-palette-color="accent"></ellipse></g><g transform="matrix(1,0,0,1,50.74160508029258,58.35485894765793)"><svg viewBox="0 0 121.8120759489358 106.5855682142051" height="106.5855682142051" width="121.8120759489358"><g><svg xmlns="http://www.w3.org/2000/svg" xmlns:xlink="http://www.w3.org/1999/xlink" version="1.1" x="0" y="0" viewBox="-0.0000012834971299330478 -0.0000012834971299330478 100.00000128349713 87.50000256699425" style="enable-background:new 0 0 100 87.5;" xml:space="preserve" id="dxe-0" width="121.8120759489358" height="106.5855682142051" class="icon-dxe-0" data-fill-palette-color="quaternary"><path d="M12.5 6.25A6.246 6.246 0 0 1 6.25 12.5 6.246 6.246 0 0 1 0 6.25 6.246 6.246 0 0 1 6.25 0 6.246 6.246 0 0 1 12.5 6.25" fill="#000000" data-fill-palette-color="quaternary"></path><rect x="25" width="75" height="12.5" fill="#000000" data-fill-palette-color="quaternary"></rect><path d="M12.5 56.25A6.246 6.246 0 0 1 6.25 62.5C2.795 62.5 0 59.705 0 56.25S2.795 50 6.25 50A6.246 6.246 0 0 1 12.5 56.25" fill="#000000" data-fill-palette-color="quaternary"></path><rect x="25" y="50" width="75" height="12.5" fill="#000000" data-fill-palette-color="quaternary"></rect><path d="M12.5 31.25A6.246 6.246 0 0 1 6.25 37.5C2.795 37.5 0 34.705 0 31.25S2.795 25 6.25 25A6.246 6.246 0 0 1 12.5 31.25" fill="#000000" data-fill-palette-color="quaternary"></path><path d="M12.5 81.25A6.246 6.246 0 0 1 6.25 87.5C2.795 87.5 0 84.705 0 81.25S2.795 75 6.25 75A6.246 6.246 0 0 1 12.5 81.25" fill="#000000" data-fill-palette-color="quaternary"></path><rect x="25" y="25" width="75" height="12.5" fill="#000000" data-fill-palette-color="quaternary"></rect><rect x="25" y="75" width="75" height="12.5" fill="#000000" data-fill-palette-color="quaternary"></rect></svg></g></svg></g></svg></g></svg></g><g></g></svg></g><defs></defs></svg><rect width="245.51778738228182" height="247.2" fill="none" stroke="none" visibility="hidden"></rect></g></svg></g></svg>